ffmpeg started on 2025-05-05 at 11:10:46
Report written to "D:\Convert\FFMetrics\reports\ssim_report-6.txt"
Log level: 32
Command line:
ffmpeg -hide_banner -nostdin -i "G:\\\xc0\xed\xe8\xec\xe5\\\xce\xed\xe3\xee\xe8\xed\xe3\xe8\\!_35_\xcb\xe5\xf2\xee_2024\\JamClub-1\\\xdd\xf2\xee\xf2 \xec\xe8\xf0 \xf1\xeb\xe8\xf8\xea\xee\xec \xed\xe5\xf1\xee\xe2\xe5\xf0\xf8\xe5\xed\xe5\xed\\JamClub_Kono_Sekai_wa_Fukanzen_Sugiru_09_1080p_HEVC.mkv" -i "G:\\\xc0\xed\xe8\xec\xe5\\\xce\xed\xe3\xee\xe8\xed\xe3\xe8\\!_35_\xcb\xe5\xf2\xee_2024\\JamClub-1\\\xdd\xf2\xee\xf2 \xec\xe8\xf0 \xf1\xeb\xe8\xf8\xea\xee\xec \xed\xe5\xf1\xee\xe2\xe5\xf0\xf8\xe5\xed\xe5\xed\\JamClub_Kono_Sekai_wa_Fukanzen_Sugiru_09_1080p.mp4" -lavfi "[0:v]settb=AVTB,setpts=PTS-STARTPTS,format=pix_fmts=yuv420p10,fps=24000/1001,scale=1920:1080:flags=bicubic[main];[1:v]settb=AVTB,setpts=PTS-STARTPTS,format=pix_fmts=yuv420p,fps=24000/1001,scale=1920:1080:flags=bicubic[ref];[main][ref]ssim=eof_action=endall:stats_file='D\\:/Convert/FFMetrics/logs/ssim_logfile-6.txt'" -f null -
Input #0, matroska,webm, from 'G:\Аниме\Онгоинги\!_35_Лето_2024\JamClub-1\Этот мир слишком несовершенен\JamClub_Kono_Sekai_wa_Fukanzen_Sugiru_09_1080p_HEVC.mkv':
  Metadata:
    COMPATIBLE_BRANDS: isomiso2avc1mp41
    MAJOR_BRAND     : isom
    MINOR_VERSION   : 512
    ENCODER         : Lavf61.7.100
  Duration: 00:24:27.35, start: -0.001000, bitrate: 1284 kb/s
  Stream #0:0: Video: hevc (Main 10), yuv420p10le(tv, bt709, progressive), 1920x1080 [SAR 1:1 DAR 16:9], 23.98 fps, 23.98 tbr, 1k tbn (default)
      Metadata:
        HANDLER_NAME    : VideoHandler
        VENDOR_ID       : [0][0][0][0]
        ENCODER         : Lavc61.19.100 libx265
        BPS             : 1086258
        DURATION        : 00:24:27.215708333
        NUMBER_OF_FRAMES: 35178
        NUMBER_OF_BYTES : 199221913
        _STATISTICS_WRITING_APP: mkvpropedit v66.0.0 ('Josie') 64-bit
        _STATISTICS_WRITING_DATE_UTC: 2025-05-04 17:03:47
        _STATISTICS_TAGS: BPS DURATION NUMBER_OF_FRAMES NUMBER_OF_BYTES
  Stream #0:1(eng): Audio: aac (LC), 48000 Hz, stereo, fltp (default)
      Metadata:
        HANDLER_NAME    : SoundHandler
        VENDOR_ID       : [0][0][0][0]
        ENCODER         : Lavc61.19.100 aac
        BPS             : 194353
        DURATION        : 00:24:27.309000000
        NUMBER_OF_FRAMES: 68781
        NUMBER_OF_BYTES : 35647067
        _STATISTICS_WRITING_APP: mkvpropedit v66.0.0 ('Josie') 64-bit
        _STATISTICS_WRITING_DATE_UTC: 2025-05-04 17:03:47
        _STATISTICS_TAGS: BPS DURATION NUMBER_OF_FRAMES NUMBER_OF_BYTES
Input #1, mov,mp4,m4a,3gp,3g2,mj2, from 'G:\Аниме\Онгоинги\!_35_Лето_2024\JamClub-1\Этот мир слишком несовершенен\JamClub_Kono_Sekai_wa_Fukanzen_Sugiru_09_1080p.mp4':
  Metadata:
    major_brand     : isom
    minor_version   : 512
    compatible_brands: isomiso2avc1mp41
    encoder         : Lavf60.16.100
  Duration: 00:24:27.33, start: 0.000000, bitrate: 3512 kb/s
  Stream #1:0[0x1](und): Video: h264 (High) (avc1 / 0x31637661), yuv420p(progressive), 1920x1080 [SAR 1:1 DAR 16:9], 3314 kb/s, 23.98 fps, 23.98 tbr, 90k tbn (default)
      Metadata:
        handler_name    : VideoHandler
        vendor_id       : [0][0][0][0]
  Stream #1:1[0x2](eng): Audio: aac (LC) (mp4a / 0x6134706D), 48000 Hz, stereo, fltp, 191 kb/s (default)
      Metadata:
        handler_name    : SoundHandler
        vendor_id       : [0][0][0][0]
Stream mapping:
  Stream #0:0 (hevc) -> settb:default
  Stream #1:0 (h264) -> settb:default
  ssim:default -> Stream #0:0 (wrapped_avframe)
  Stream #0:1 -> #0:1 (aac (native) -> pcm_s16le (native))
Output #0, null, to 'pipe:':
  Metadata:
    COMPATIBLE_BRANDS: isomiso2avc1mp41
    MAJOR_BRAND     : isom
    MINOR_VERSION   : 512
    encoder         : Lavf61.7.100
  Stream #0:0: Video: wrapped_avframe, yuv420p10le(tv, bt709, progressive), 1920x1080 [SAR 1:1 DAR 16:9], q=2-31, 200 kb/s, 23.98 fps, 23.98 tbn
      Metadata:
        encoder         : Lavc61.19.100 wrapped_avframe
  Stream #0:1(eng): Audio: pcm_s16le, 48000 Hz, stereo, s16, 1536 kb/s (default)
      Metadata:
        HANDLER_NAME    : SoundHandler
        VENDOR_ID       : [0][0][0][0]
        _STATISTICS_TAGS: BPS DURATION NUMBER_OF_FRAMES NUMBER_OF_BYTES
        BPS             : 194353
        DURATION        : 00:24:27.309000000
        NUMBER_OF_FRAMES: 68781
        NUMBER_OF_BYTES : 35647067
        _STATISTICS_WRITING_APP: mkvpropedit v66.0.0 ('Josie') 64-bit
        _STATISTICS_WRITING_DATE_UTC: 2025-05-04 17:03:47
        encoder         : Lavc61.19.100 pcm_s16le
frame=   97 fps=0.0 q=-0.0 size=N/A time=00:00:04.04 bitrate=N/A speed=8.03x    frame=  253 fps=245 q=-0.0 size=N/A time=00:00:10.55 bitrate=N/A speed=10.2x    frame=  429 fps=278 q=-0.0 size=N/A time=00:00:17.89 bitrate=N/A speed=11.6x    frame=  608 fps=296 q=-0.0 size=N/A time=00:00:25.35 bitrate=N/A speed=12.3x    frame=  819 fps=318 q=-0.0 size=N/A time=00:00:34.15 bitrate=N/A speed=13.3x    frame= 1040 fps=337 q=-0.0 size=N/A time=00:00:43.37 bitrate=N/A speed=  14x    frame= 1267 fps=351 q=-0.0 size=N/A time=00:00:52.84 bitrate=N/A speed=14.6x    frame= 1507 fps=366 q=-0.0 size=N/A time=00:01:02.85 bitrate=N/A speed=15.3x    frame= 1753 fps=379 q=-0.0 size=N/A time=00:01:13.11 bitrate=N/A speed=15.8x    frame= 2008 fps=389 q=-0.0 size=N/A time=00:01:23.75 bitrate=N/A speed=16.2x    frame= 2239 fps=395 q=-0.0 size=N/A time=00:01:33.38 bitrate=N/A speed=16.5x    frame= 2493 fps=403 q=-0.0 size=N/A time=00:01:43.97 bitrate=N/A speed=16.8x    frame= 2697 fps=403 q=-0.0 size=N/A time=00:01:52.48 bitrate=N/A speed=16.8x    frame= 2940 fps=407 q=-0.0 size=N/A time=00:02:02.62 bitrate=N/A speed=  17x    frame= 3187 fps=412 q=-0.0 size=N/A time=00:02:12.92 bitrate=N/A speed=17.2x    frame= 3442 fps=418 q=-0.0 size=N/A time=00:02:23.56 bitrate=N/A speed=17.4x    frame= 3672 fps=419 q=-0.0 size=N/A time=00:02:33.15 bitrate=N/A speed=17.5x    frame= 3926 fps=424 q=-0.0 size=N/A time=00:02:43.74 bitrate=N/A speed=17.7x    frame= 4135 fps=422 q=-0.0 size=N/A time=00:02:52.46 bitrate=N/A speed=17.6x    frame= 4298 fps=417 q=-0.0 size=N/A time=00:02:59.26 bitrate=N/A speed=17.4x    frame= 4513 fps=417 q=-0.0 size=N/A time=00:03:08.22 bitrate=N/A speed=17.4x    frame= 4759 fps=420 q=-0.0 size=N/A time=00:03:18.48 bitrate=N/A speed=17.5x    frame= 5037 fps=425 q=-0.0 size=N/A time=00:03:30.08 bitrate=N/A speed=17.7x    frame= 5135 fps=415 q=-0.0 size=N/A time=00:03:34.17 bitrate=N/A speed=17.3x    frame= 5281 fps=410 q=-0.0 size=N/A time=00:03:40.26 bitrate=N/A speed=17.1x    frame= 5435 fps=405 q=-0.0 size=N/A time=00:03:46.68 bitrate=N/A speed=16.9x    frame= 5654 fps=406 q=-0.0 size=N/A time=00:03:55.81 bitrate=N/A speed=16.9x    frame= 5884 fps=408 q=-0.0 size=N/A time=00:04:05.41 bitrate=N/A speed=  17x    frame= 6068 fps=406 q=-0.0 size=N/A time=00:04:13.08 bitrate=N/A speed=16.9x    frame= 6276 fps=406 q=-0.0 size=N/A time=00:04:21.76 bitrate=N/A speed=16.9x    frame= 6455 fps=404 q=-0.0 size=N/A time=00:04:29.22 bitrate=N/A speed=16.9x    frame= 6646 fps=403 q=-0.0 size=N/A time=00:04:37.19 bitrate=N/A speed=16.8x    frame= 6822 fps=401 q=-0.0 size=N/A time=00:04:44.53 bitrate=N/A speed=16.7x    frame= 6997 fps=399 q=-0.0 size=N/A time=00:04:51.83 bitrate=N/A speed=16.6x    frame= 7234 fps=401 q=-0.0 size=N/A time=00:05:01.71 bitrate=N/A speed=16.7x    frame= 7473 fps=402 q=-0.0 size=N/A time=00:05:11.68 bitrate=N/A speed=16.8x    frame= 7723 fps=405 q=-0.0 size=N/A time=00:05:22.11 bitrate=N/A speed=16.9x    frame= 8000 fps=408 q=-0.0 size=N/A time=00:05:33.66 bitrate=N/A speed=  17x    frame= 8246 fps=410 q=-0.0 size=N/A time=00:05:43.92 bitrate=N/A speed=17.1x    frame= 8506 fps=412 q=-0.0 size=N/A time=00:05:54.77 bitrate=N/A speed=17.2x    frame= 8702 fps=412 q=-0.0 size=N/A time=00:06:02.94 bitrate=N/A speed=17.2x    frame= 8941 fps=413 q=-0.0 size=N/A time=00:06:12.91 bitrate=N/A speed=17.2x    frame= 9192 fps=414 q=-0.0 size=N/A time=00:06:23.38 bitrate=N/A speed=17.3x    frame= 9434 fps=416 q=-0.0 size=N/A time=00:06:33.47 bitrate=N/A speed=17.3x    frame= 9691 fps=418 q=-0.0 size=N/A time=00:06:44.19 bitrate=N/A speed=17.4x    frame= 9958 fps=420 q=-0.0 size=N/A time=00:06:55.33 bitrate=N/A speed=17.5x    frame=10200 fps=421 q=-0.0 size=N/A time=00:07:05.42 bitrate=N/A speed=17.5x    frame=10446 fps=422 q=-0.0 size=N/A time=00:07:15.68 bitrate=N/A speed=17.6x    frame=10696 fps=423 q=-0.0 size=N/A time=00:07:26.11 bitrate=N/A speed=17.7x    frame=10951 fps=424 q=-0.0 size=N/A time=00:07:36.74 bitrate=N/A speed=17.7x    frame=11202 fps=426 q=-0.0 size=N/A time=00:07:47.21 bitrate=N/A speed=17.8x    frame=11469 fps=427 q=-0.0 size=N/A time=00:07:58.35 bitrate=N/A speed=17.8x    frame=11686 fps=427 q=-0.0 size=N/A time=00:08:07.40 bitrate=N/A speed=17.8x    frame=11932 fps=428 q=-0.0 size=N/A time=00:08:17.66 bitrate=N/A speed=17.9x    frame=12184 fps=429 q=-0.0 size=N/A time=00:08:28.17 bitrate=N/A speed=17.9x    frame=12416 fps=430 q=-0.0 size=N/A time=00:08:37.85 bitrate=N/A speed=17.9x    frame=12674 fps=431 q=-0.0 size=N/A time=00:08:48.61 bitrate=N/A speed=  18x    frame=12925 fps=432 q=-0.0 size=N/A time=00:08:59.08 bitrate=N/A speed=  18x    frame=13177 fps=433 q=-0.0 size=N/A time=00:09:09.59 bitrate=N/A speed=18.1x    frame=13425 fps=434 q=-0.0 size=N/A time=00:09:19.93 bitrate=N/A speed=18.1x    frame=13666 fps=434 q=-0.0 size=N/A time=00:09:29.98 bitrate=N/A speed=18.1x    frame=13915 fps=435 q=-0.0 size=N/A time=00:09:40.37 bitrate=N/A speed=18.1x    frame=14105 fps=434 q=-0.0 size=N/A time=00:09:48.29 bitrate=N/A speed=18.1x    frame=14289 fps=433 q=-0.0 size=N/A time=00:09:55.97 bitrate=N/A speed=  18x    frame=14481 fps=432 q=-0.0 size=N/A time=00:10:03.97 bitrate=N/A speed=  18x    frame=14673 fps=431 q=-0.0 size=N/A time=00:10:11.98 bitrate=N/A speed=  18x    frame=14900 fps=431 q=-0.0 size=N/A time=00:10:21.45 bitrate=N/A speed=  18x    frame=15115 fps=431 q=-0.0 size=N/A time=00:10:30.42 bitrate=N/A speed=  18x    frame=15384 fps=432 q=-0.0 size=N/A time=00:10:41.64 bitrate=N/A speed=  18x    frame=15614 fps=432 q=-0.0 size=N/A time=00:10:51.23 bitrate=N/A speed=  18x    frame=15842 fps=432 q=-0.0 size=N/A time=00:11:00.74 bitrate=N/A speed=  18x    frame=16066 fps=433 q=-0.0 size=N/A time=00:11:10.08 bitrate=N/A speed=  18x    frame=16314 fps=433 q=-0.0 size=N/A time=00:11:20.42 bitrate=N/A speed=18.1x    frame=16544 fps=433 q=-0.0 size=N/A time=00:11:30.02 bitrate=N/A speed=18.1x    frame=16786 fps=434 q=-0.0 size=N/A time=00:11:40.11 bitrate=N/A speed=18.1x    frame=17004 fps=434 q=-0.0 size=N/A time=00:11:49.20 bitrate=N/A speed=18.1x    frame=17215 fps=433 q=-0.0 size=N/A time=00:11:58.00 bitrate=N/A speed=18.1x    frame=17442 fps=433 q=-0.0 size=N/A time=00:12:07.47 bitrate=N/A speed=18.1x    frame=17685 fps=434 q=-0.0 size=N/A time=00:12:17.61 bitrate=N/A speed=18.1x    frame=17932 fps=434 q=-0.0 size=N/A time=00:12:27.91 bitrate=N/A speed=18.1x    frame=18158 fps=435 q=-0.0 size=N/A time=00:12:37.33 bitrate=N/A speed=18.1x    frame=18428 fps=436 q=-0.0 size=N/A time=00:12:48.60 bitrate=N/A speed=18.2x    frame=18689 fps=436 q=-0.0 size=N/A time=00:12:59.48 bitrate=N/A speed=18.2x    frame=18958 fps=438 q=-0.0 size=N/A time=00:13:10.70 bitrate=N/A speed=18.2x    frame=19198 fps=438 q=-0.0 size=N/A time=00:13:20.71 bitrate=N/A speed=18.3x    frame=19431 fps=438 q=-0.0 size=N/A time=00:13:30.43 bitrate=N/A speed=18.3x    frame=19687 fps=439 q=-0.0 size=N/A time=00:13:41.11 bitrate=N/A speed=18.3x    frame=19924 fps=439 q=-0.0 size=N/A time=00:13:50.99 bitrate=N/A speed=18.3x    frame=20182 fps=440 q=-0.0 size=N/A time=00:14:01.75 bitrate=N/A speed=18.3x    frame=20421 fps=440 q=-0.0 size=N/A time=00:14:11.72 bitrate=N/A speed=18.3x    frame=20617 fps=439 q=-0.0 size=N/A time=00:14:19.90 bitrate=N/A speed=18.3x    frame=20857 fps=439 q=-0.0 size=N/A time=00:14:29.91 bitrate=N/A speed=18.3x    frame=21102 fps=440 q=-0.0 size=N/A time=00:14:40.12 bitrate=N/A speed=18.3x    frame=21343 fps=440 q=-0.0 size=N/A time=00:14:50.18 bitrate=N/A speed=18.4x    frame=21570 fps=440 q=-0.0 size=N/A time=00:14:59.64 bitrate=N/A speed=18.4x    frame=21787 fps=440 q=-0.0 size=N/A time=00:15:08.69 bitrate=N/A speed=18.3x    frame=21962 fps=439 q=-0.0 size=N/A time=00:15:15.99 bitrate=N/A speed=18.3x    frame=22216 fps=439 q=-0.0 size=N/A time=00:15:26.59 bitrate=N/A speed=18.3x    frame=22480 fps=440 q=-0.0 size=N/A time=00:15:37.60 bitrate=N/A speed=18.4x    frame=22749 fps=441 q=-0.0 size=N/A time=00:15:48.82 bitrate=N/A speed=18.4x    frame=23012 fps=442 q=-0.0 size=N/A time=00:15:59.79 bitrate=N/A speed=18.4x    frame=23262 fps=442 q=-0.0 size=N/A time=00:16:10.21 bitrate=N/A speed=18.4x    frame=23529 fps=443 q=-0.0 size=N/A time=00:16:21.35 bitrate=N/A speed=18.5x    frame=23784 fps=443 q=-0.0 size=N/A time=00:16:31.99 bitrate=N/A speed=18.5x    frame=24037 fps=444 q=-0.0 size=N/A time=00:16:42.54 bitrate=N/A speed=18.5x    frame=24283 fps=444 q=-0.0 size=N/A time=00:16:52.80 bitrate=N/A speed=18.5x    frame=24510 fps=444 q=-0.0 size=N/A time=00:17:02.27 bitrate=N/A speed=18.5x    frame=24755 fps=444 q=-0.0 size=N/A time=00:17:12.48 bitrate=N/A speed=18.5x    frame=24991 fps=444 q=-0.0 size=N/A time=00:17:22.33 bitrate=N/A speed=18.5x    frame=25237 fps=445 q=-0.0 size=N/A time=00:17:32.59 bitrate=N/A speed=18.6x    frame=25489 fps=445 q=-0.0 size=N/A time=00:17:43.10 bitrate=N/A speed=18.6x    frame=25734 fps=445 q=-0.0 size=N/A time=00:17:53.32 bitrate=N/A speed=18.6x    frame=25974 fps=446 q=-0.0 size=N/A time=00:18:03.33 bitrate=N/A speed=18.6x    frame=26245 fps=446 q=-0.0 size=N/A time=00:18:14.63 bitrate=N/A speed=18.6x    frame=26494 fps=447 q=-0.0 size=N/A time=00:18:25.02 bitrate=N/A speed=18.6x    frame=26751 fps=447 q=-0.0 size=N/A time=00:18:35.73 bitrate=N/A speed=18.6x    frame=26951 fps=447 q=-0.0 size=N/A time=00:18:44.08 bitrate=N/A speed=18.6x    frame=27112 fps=445 q=-0.0 size=N/A time=00:18:50.79 bitrate=N/A speed=18.6x    frame=27327 fps=445 q=-0.0 size=N/A time=00:18:59.76 bitrate=N/A speed=18.6x    frame=27536 fps=445 q=-0.0 size=N/A time=00:19:08.48 bitrate=N/A speed=18.6x    frame=27779 fps=445 q=-0.0 size=N/A time=00:19:18.61 bitrate=N/A speed=18.6x    frame=28018 fps=445 q=-0.0 size=N/A time=00:19:28.58 bitrate=N/A speed=18.6x    frame=28250 fps=445 q=-0.0 size=N/A time=00:19:38.26 bitrate=N/A speed=18.6x    frame=28472 fps=445 q=-0.0 size=N/A time=00:19:47.51 bitrate=N/A speed=18.6x    frame=28703 fps=445 q=-0.0 size=N/A time=00:19:57.15 bitrate=N/A speed=18.6x    frame=28961 fps=446 q=-0.0 size=N/A time=00:20:07.91 bitrate=N/A speed=18.6x    frame=29228 fps=446 q=-0.0 size=N/A time=00:20:19.05 bitrate=N/A speed=18.6x    frame=29444 fps=446 q=-0.0 size=N/A time=00:20:28.06 bitrate=N/A speed=18.6x    frame=29682 fps=446 q=-0.0 size=N/A time=00:20:37.98 bitrate=N/A speed=18.6x    frame=29925 fps=446 q=-0.0 size=N/A time=00:20:48.12 bitrate=N/A speed=18.6x    frame=30164 fps=446 q=-0.0 size=N/A time=00:20:58.09 bitrate=N/A speed=18.6x    frame=30429 fps=447 q=-0.0 size=N/A time=00:21:09.14 bitrate=N/A speed=18.6x    frame=30705 fps=448 q=-0.0 size=N/A time=00:21:20.65 bitrate=N/A speed=18.7x    frame=30966 fps=448 q=-0.0 size=N/A time=00:21:31.54 bitrate=N/A speed=18.7x    frame=31195 fps=448 q=-0.0 size=N/A time=00:21:41.09 bitrate=N/A speed=18.7x    frame=31434 fps=448 q=-0.0 size=N/A time=00:21:51.05 bitrate=N/A speed=18.7x    frame=31705 fps=449 q=-0.0 size=N/A time=00:22:02.36 bitrate=N/A speed=18.7x    frame=31937 fps=449 q=-0.0 size=N/A time=00:22:12.03 bitrate=N/A speed=18.7x    frame=32188 fps=449 q=-0.0 size=N/A time=00:22:22.50 bitrate=N/A speed=18.7x    frame=32428 fps=449 q=-0.0 size=N/A time=00:22:32.51 bitrate=N/A speed=18.7x    frame=32686 fps=449 q=-0.0 size=N/A time=00:22:43.27 bitrate=N/A speed=18.7x    frame=32928 fps=450 q=-0.0 size=N/A time=00:22:53.37 bitrate=N/A speed=18.7x    frame=33144 fps=449 q=-0.0 size=N/A time=00:23:02.38 bitrate=N/A speed=18.7x    frame=33351 fps=449 q=-0.0 size=N/A time=00:23:11.01 bitrate=N/A speed=18.7x    frame=33546 fps=449 q=-0.0 size=N/A time=00:23:19.14 bitrate=N/A speed=18.7x    frame=33766 fps=448 q=-0.0 size=N/A time=00:23:28.32 bitrate=N/A speed=18.7x    frame=33952 fps=448 q=-0.0 size=N/A time=00:23:36.08 bitrate=N/A speed=18.7x    frame=34110 fps=447 q=-0.0 size=N/A time=00:23:42.67 bitrate=N/A speed=18.6x    frame=34328 fps=447 q=-0.0 size=N/A time=00:23:51.76 bitrate=N/A speed=18.6x    frame=34520 fps=446 q=-0.0 size=N/A time=00:23:59.77 bitrate=N/A speed=18.6x    frame=34740 fps=446 q=-0.0 size=N/A time=00:24:08.94 bitrate=N/A speed=18.6x    frame=34956 fps=446 q=-0.0 size=N/A time=00:24:17.95 bitrate=N/A speed=18.6x    frame=35168 fps=445 q=-0.0 size=N/A time=00:24:26.79 bitrate=N/A speed=18.6x    [Parsed_ssim_10 @ 0000024c1c3f0200] SSIM Y:0.993397 (21.802784) U:0.993157 (21.647482) V:0.993595 (21.934721) All:0.993390 (21.798093)
[out#0/null @ 0000024c1bcb6e00] video:15116KiB audio:275124KiB subtitle:0KiB other streams:0KiB global headers:0KiB muxing overhead: unknown
frame=35178 fps=445 q=-0.0 Lsize=N/A time=00:24:27.21 bitrate=N/A speed=18.6x    
